<?xml version="1.0" encoding="utf-8"?>
<svg viewBox="64.351 74.473 139.694 168.133" xmlns="http://www.w3.org/2000/svg">
  <path
    d="M 95 124.018 C 97.951 129.187 100.507 142.242 102.143 151.697 C 102.375 153.037 102.551 154.358 102.689 155.669 C 115.09 149.857 135.215 143.089 142.768 141.429 C 147.739 140.337 149.562 140.488 152.59 141.429 C 155.672 142.387 159.202 144.331 161.072 147.232 C 163.167 150.483 164.475 156.846 163.75 160.625 C 163.104 163.998 161.753 166.527 157.947 169.107 C 151.692 173.347 133.016 175.924 124.018 179.822 C 116.929 182.893 111.633 188.295 107.054 189.643 C 107.051 189.644 107.049 189.645 107.046 189.645 C 109.028 196.075 111.75 203.424 114.108 210.249 C 126.441 209.03 140.535 208.184 148.125 206.238 C 157.227 203.903 162.918 202.14 168.215 198.202 C 173.15 194.533 175.563 186.642 179.375 183.916 C 182.297 181.827 185.095 180.939 188.304 181.238 C 192.011 181.582 197.758 184.226 200.357 187.041 C 202.712 189.592 204.53 192.71 203.929 196.863 C 203.03 203.078 195.322 215.458 189.197 221.416 C 183.647 226.815 176.966 229.231 169.554 232.13 C 161.379 235.329 152.503 237.637 141.875 239.273 C 129.265 241.215 106.597 243.847 98.125 241.952 C 93.383 240.891 91.513 239.049 89.643 236.148 C 88.395 234.211 87.426 231.169 87 228.226 C 82.336 217.592 77.481 201.313 74.465 188.304 C 70.582 171.559 66.308 144.802 66.994 132.449 C 65.024 129.025 63.745 123.866 64.643 118.707 C 65.871 111.66 70.812 100.396 77.59 94.153 C 84.869 87.449 97.154 84.02 107.947 80.76 C 119.129 77.383 134.504 74.086 143.661 74.51 C 150.324 74.819 156.111 76.164 159.286 79.421 C 162.256 82.468 163.398 88.893 162.857 92.814 C 162.364 96.392 161.206 99.572 157.054 102.189 C 150.022 106.622 127.425 107.73 116.875 111.118 C 108.817 113.705 102.321 115.259 97.679 119.6 C 96.489 120.713 95.615 122.199 94.895 123.836 C 94.93 123.896 94.965 123.956 95 124.018 Z"
    style="stroke-width: 0px; stroke: rgb(0, 0, 0); stroke-linecap: round; paint-order: fill markers; fill: rgb(132, 255, 148);" />
</svg>